<svg xmlns="http://www.w3.org/2000/svg" width="512" height="512" viewBox="0 0 1024 1024">
  <defs>
    <linearGradient id="grad1" x1="0%" y1="0%" x2="100%" y2="100%">
      <stop offset="0%" style="stop-color:#007AFF; stop-opacity:1" />
      <stop offset="100%" style="stop-color:#0017A4; stop-opacity:1" />
    </linearGradient>
  </defs>
  <rect x="0" y="0" width="1024" height="1024" rx="100" ry="100" fill="url(#grad1)" />
<g transform="translate(87.8000,350.5400) scale(7.0,7.8) translate(-0.0,-18.75)"><g fill="#ffffff"><g transform="translate(0, 0)"><path d="M10.10 60.15Q6.80 60.15 4.63 58.78Q2.45 57.40 1.35 54.93Q0.25 52.45 0 49.15L3.35 48.15Q3.60 50.65 4.25 52.68Q4.90 54.70 6.30 55.88Q7.70 57.05 10.15 57.05Q12.85 57.05 14.35 55.65Q15.85 54.25 15.85 51.20Q15.85 48.50 14.52 46.55Q13.20 44.60 10.90 42.45L3.75 35.60Q1.85 33.75 0.95 31.78Q0.05 29.80 0.05 27.45Q0.05 23.25 2.55 21Q5.05 18.75 9.20 18.75Q11.35 18.75 13.07 19.30Q14.80 19.85 16.02 21.08Q17.25 22.30 17.95 24.25Q18.65 26.20 18.90 29.00L15.65 29.85Q15.45 27.30 14.82 25.48Q14.20 23.65 12.88 22.70Q11.55 21.75 9.20 21.75Q6.70 21.75 5.10 23.05Q3.50 24.35 3.50 27.10Q3.50 28.75 4.13 30.10Q4.75 31.45 6.35 33L13.50 39.75Q15.90 42 17.65 44.75Q19.40 47.50 19.40 50.95Q19.40 54.00 18.23 56.05Q17.05 58.10 14.95 59.13Q12.85 60.15 10.10 60.15ZM24.50 59.65L24.50 19.15L28.30 19.15L28.30 56.80L39.80 56.80L39.80 59.65L24.50 59.65ZM43.70 59.65L43.70 19.15L47.50 19.15L47.50 59.65L43.70 59.65ZM54.70 59.65L54.70 19.15L64.40 19.15Q68.05 19.15 70.15 20.50Q72.25 21.85 73.13 24.25Q74 26.65 74 29.90Q74 32.75 73.08 35.18Q72.15 37.60 70.03 39.05Q67.90 40.50 64.45 40.50L58.50 40.50L58.50 59.65L54.70 59.65M58.50 37.65L63.35 37.65Q65.80 37.65 67.33 36.93Q68.85 36.20 69.55 34.50Q70.25 32.80 70.25 29.90Q70.25 26.80 69.65 25.08Q69.05 23.35 67.58 22.68Q66.10 22.00 63.40 22.00L58.50 22.00L58.50 37.65ZM87.20 60.15Q84.05 60.15 82.05 58.93Q80.05 57.70 79.13 55.50Q78.20 53.30 78.20 50.30L78.20 49.30L81.75 49.30Q81.75 49.40 81.75 49.70Q81.75 50.00 81.75 50.15Q81.80 52.30 82.30 53.88Q82.80 55.45 84 56.30Q85.20 57.15 87.20 57.15Q89.10 57.15 90.42 56.33Q91.75 55.50 92.42 53.60Q93.10 51.70 93.10 48.65Q93.10 44.90 91.75 42.53Q90.40 40.15 87.05 40.05Q86.95 40.05 86.55 40.05Q86.15 40.05 86.05 40.05L86.05 36.55Q86.15 36.55 86.55 36.55Q86.95 36.55 87.05 36.55Q90.30 36.55 91.70 34.73Q93.10 32.90 93.10 28.85Q93.10 25.70 91.92 23.70Q90.75 21.70 87.60 21.70Q84.55 21.70 83.17 23.43Q81.80 25.15 81.75 28.75Q81.75 28.85 81.75 29.08Q81.75 29.30 81.75 29.45L78.20 29.45L78.20 28.50Q78.20 25.50 79.13 23.33Q80.05 21.15 82.15 19.95Q84.25 18.75 87.55 18.75Q90.75 18.75 92.80 20.05Q94.85 21.35 95.85 23.63Q96.85 25.90 96.85 28.85Q96.85 33.10 95.22 35.43Q93.60 37.75 91.05 38.35Q92.55 38.75 93.88 39.95Q95.20 41.15 96.03 43.28Q96.85 45.40 96.85 48.60Q96.85 52.00 95.88 54.63Q94.90 57.25 92.80 58.70Q90.70 60.15 87.20 60.15ZM112 60.15Q108.95 60.15 106.90 59.10Q104.85 58.05 103.83 55.93Q102.80 53.80 102.75 50.65Q102.75 50.60 102.75 50.30Q102.75 50.00 102.75 49.95L106.35 49.95Q106.35 53.80 107.60 55.45Q108.85 57.10 112.05 57.10Q113.75 57.10 114.98 56.30Q116.20 55.50 116.85 53.58Q117.50 51.65 117.50 48.40L117.50 40.75Q116.75 41.65 115.13 42.40Q113.50 43.15 111 43.15Q107.65 43.15 105.75 41.88Q103.85 40.60 103.05 37.93Q102.25 35.25 102.25 31.05Q102.25 27.30 103.23 24.55Q104.20 21.80 106.33 20.28Q108.45 18.75 111.90 18.75Q115.20 18.75 117.25 20.28Q119.30 21.80 120.25 24.63Q121.20 27.45 121.20 31.40L121.20 47.55Q121.20 51.25 120.33 54.10Q119.45 56.95 117.45 58.55Q115.45 60.15 112 60.15M111.85 40.30Q114 40.30 115.40 39.53Q116.80 38.75 117.50 37.95L117.50 31.00Q117.50 27.70 116.93 25.68Q116.35 23.65 115.10 22.73Q113.85 21.80 111.90 21.80Q109.95 21.80 108.63 22.73Q107.30 23.65 106.65 25.55Q106 27.45 106 30.35Q106 33.65 106.38 35.88Q106.75 38.10 108 39.20Q109.25 40.30 111.85 40.30Z" /></g></g></g></svg>
